<?xml version="1.0" encoding="utf-8"?>
<!-- Generator: Adobe Illustrator 22.0.1, SVG Export Plug-In . SVG Version: 6.00 Build 0)  -->
<svg version="1.1" id="Capa_1" xmlns="http://www.w3.org/2000/svg" xmlns:xlink="http://www.w3.org/1999/xlink" x="0px" y="0px"
	 viewBox="0 0 96.4 96.4" style="enable-background:new 0 0 96.4 96.4;" xml:space="preserve">
<style type="text/css">
	.st0{fill:#73B5E0;}
	.st1{fill:url(#SVGID_1_);}
</style>
<title>favicon</title>
<g id="Primer_plano">
	<polygon class="st0" points="90.2,2.6 64.5,2.6 45.8,29.3 68.6,29.3 	"/>
	<polygon class="st0" points="45.8,29.3 20,29.3 1.3,56 24.2,56 	"/>
	
		<linearGradient id="SVGID_1_" gradientUnits="userSpaceOnUse" x1="178.244" y1="621.2946" x2="466.334" y2="621.2946" gradientTransform="matrix(1 0 0 1 -127.63 -551.3356)">
		<stop  offset="0" style="stop-color:#73B5E0"/>
		<stop  offset="1" style="stop-color:#636B70"/>
	</linearGradient>
	<path class="st1" d="M77.9,86.2c-3.8,0-5.4-0.9-5.4-2.9c0-0.4,0.1-0.8,0.2-1.2l5.1-19.7h15.4l1.9-7.6H79.7l2.2-8.6l-19.4,1.2
		l-1.9,7.4h-8l-2,7.5h8l-4.8,18.5c-0.3,1-0.4,2.1-0.5,3.1c0,4.2,3.1,8.3,6.9,9.1c1.5,0.2,3,0.4,4.4,0.5c1.8,0.1,2.8,0.1,3.2,0.1
		h19.3l2.3-8.7c-2.1,0.8-4.4,1.2-6.7,1.2H77.9z"/>
</g>
</svg>
