<?xml version="1.0" encoding="utf-8"?>
<!-- Generator: Adobe Illustrator 21.0.0, SVG Export Plug-In . SVG Version: 6.00 Build 0)  -->
<svg version="1.1" id="Layer_1" xmlns="http://www.w3.org/2000/svg" xmlns:xlink="http://www.w3.org/1999/xlink" x="0px" y="0px"
	 viewBox="0 0 337.4 121" style="enable-background:new 0 0 337.4 121;" xml:space="preserve">
<style type="text/css">
	.st0{fill:#E3E3E3;}
</style>
<title>logo-footer</title>
<g id="Primer_plano">
	<polygon class="st0" points="88.9,0 63.2,0 44.5,26.7 67.3,26.7 	"/>
	<polygon class="st0" points="44.5,26.7 18.7,26.7 0,53.3 22.9,53.3 	"/>
	<polygon class="st0" points="199.5,108.2 189.9,108.2 189.6,109.8 193.5,109.8 191.1,120.8 192.9,120.8 195.3,109.8 199.2,109.8 	
		"/>
	<path class="st0" d="M215.4,116.1h-5l3.8-6L215.4,116.1z M205.5,120.8h2l2-3.2h6.2l0.7,3.2h1.9l-2.8-12.6h-1.7L205.5,120.8z"/>
	<polygon class="st0" points="227.8,120.8 234.9,120.8 235.2,119.2 230,119.2 232.4,108.2 230.6,108.2 	"/>
	<polygon class="st0" points="244.9,120.8 252,120.8 252.3,119.2 247.1,119.2 249.5,108.2 247.7,108.2 	"/>
	<polygon class="st0" points="262.1,120.8 269.2,120.8 269.6,119.2 264.3,119.2 265.2,115.1 269.9,115.1 270.2,113.5 265.6,113.5 
		266.4,109.8 271.3,109.8 271.7,108.2 264.9,108.2 	"/>
	<path class="st0" d="M280.3,120.8h1.8l1.2-5.6h1.6c0.9,0,1.2,0.3,1.7,2.3l0.8,3.3h1.9l-0.7-2.6c-0.2-1-0.5-2.9-1.5-3.4
		c1.7-0.2,3-1.7,3.1-3.4c0-3.1-2.9-3.1-4.7-3.1H283L280.3,120.8z M284.4,109.8h1.7c1.4,0,2.1,0.4,2.1,1.7c0,1.7-1.9,2.1-3.2,2.1
		h-1.4L284.4,109.8z"/>
	<polygon class="st0" points="299.4,120.8 306.4,120.8 306.8,119.2 301.5,119.2 302.4,115.1 307.1,115.1 307.5,113.5 302.8,113.5 
		303.6,109.8 308.6,109.8 308.9,108.2 302.1,108.2 	"/>
	<path class="st0" d="M325.9,108.6c-1-0.4-2-0.6-3-0.6c-2.1,0-4.1,1.3-4.1,3.6c0,3.5,4.3,3,4.3,5.6c0,1-0.8,2.2-2.7,2.2
		c-0.9,0-1.8-0.3-2.6-0.8l-0.6,1.6c1.1,0.5,2.3,0.7,3.5,0.7c2.2,0.2,4.1-1.5,4.3-3.7c0-0.1,0-0.2,0-0.3c0-3.3-4.3-3.3-4.3-5.4
		c0-1.5,1.3-2,2.5-2c0.8,0,1.6,0.2,2.3,0.6L325.9,108.6z"/>
	<path class="st0" d="M337.4,52.2h-34.6c-3.7,0-6.4,0.6-8.2,1.6s-2.9,2.3-4.1,5.1c-0.3,0.7-0.6,1.4-0.7,2.1l-2.1,7.9
		c-0.2,0.8-0.3,1.5-0.3,2.3c-0.1,3.5,2.1,6.8,5.5,7.9c2.2,0.4,4.4,0.6,6.6,0.6H311c1.7,0,2.1,0.2,2.1,1.3c-0.1,0.6-0.2,1.1-0.5,1.7
		c-0.4,0.6-1,1-1.7,1.1h-16.1l-3.3-0.1c-3.6-0.1-4-0.2-5.4-0.6c-0.6-0.2-1.2-0.3-1.9-0.6l-0.9,8.7h33.1c6.1,0,8.3-0.5,11-2.5
		c2.3-1.7,3.3-3.7,4.5-7.8l1.6-6c0.4-1.3,0.6-2.6,0.6-3.9c0-4.6-3.7-7.8-8.9-7.8h-13.7c-2.5,0-3.1-0.2-3.1-1.3
		c0-1.4,0.9-2.1,2.7-2.1h16.5c1.9,0,3.8,0.1,5.6,0.3c1.3,0.1,2.6,0.5,3.9,1L337.4,52.2z M265.9,61.7c-0.1,0.6-0.2,1.2-0.3,1.8
		l-1.1,4.4h-13l1.2-4.4c0.9-3.2,1.4-3.7,4.4-3.7h6C264.9,59.7,265.9,60.3,265.9,61.7z M284.5,61.9c0.1-3.7-2.1-7.2-5.5-8.7
		c-1.8-0.7-4-1-8-1h-24.4c-6.8,0-10.9,2.9-12.4,8.8l-4.5,17.2c-0.2,1-0.4,2.1-0.4,3.1c0.1,3.6,2.1,7,5.4,8.6
		c2.1,0.9,4.4,1.3,6.8,1.3h34l3.4-8.4c-2.2,0.7-4.6,0.9-6.9,0.8h-18.7l-2.2-0.1c-1.9-0.1-2.9-0.9-2.9-2.3c0.1-0.7,0.2-1.4,0.4-2.1
		l1-3.6h32l2.5-9.7C284.5,64.5,284.6,63.2,284.5,61.9z M275.5,37h-10.8l-7.9,11.2h9.6L275.5,37z M234,52.2h-10.8
		c-2.3-0.2-4.5,0.3-6.5,1.3c-1.8,1-2.8,2.2-4.4,5.2l0.2-2.1l0.1-2.7l0.2-1.8h-17.9c0.4,0.9,0.6,1.9,0.6,2.9c0,0.9-0.1,1.7-0.2,2.5
		c0,0.5-0.2,1.1-0.3,1.6L189,82c-0.5,2.4-1.4,4.7-2.5,6.8c-0.3,0.6-0.6,1-1.4,2.2h22.4c-0.3-0.9-0.5-1.8-0.5-2.8
		c0-0.9,0.1-1.8,0.2-2.6c0.1-0.6,0.2-1.2,0.2-1.6l4.6-17.9c0.6-2.5,1.9-3.3,5.3-3.3h6.7c2.3-0.1,4.7,0.6,6.5,2L234,52.2z
		 M192.4,52.2h-10.8c-2.3-0.2-4.5,0.3-6.5,1.3c-1.8,1-2.8,2.2-4.4,5.2l0.2-2.1L171,54l0.2-1.8h-17.9c0.4,0.9,0.6,1.9,0.6,2.9
		c0,0.9-0.1,1.7-0.2,2.5c0,0.5-0.2,1.1-0.3,1.6L147.4,82c-0.5,2.4-1.4,4.7-2.5,6.8c-0.3,0.6-0.6,1-1.4,2.2H166
		c-0.3-0.9-0.5-1.8-0.5-2.8c0-0.9,0.1-1.8,0.2-2.6c0.1-0.6,0.2-1.2,0.2-1.6l4.6-17.9c0.6-2.5,1.9-3.3,5.3-3.3h6.7
		c2.3-0.1,4.7,0.6,6.5,2L192.4,52.2z M126.4,61.7c-0.1,0.6-0.2,1.2-0.3,1.8l-1.1,4.4h-13l1.2-4.4c0.9-3.2,1.4-3.7,4.4-3.7h6
		C125.5,59.7,126.5,60.3,126.4,61.7L126.4,61.7z M145.1,61.9c0.1-3.7-2.1-7.2-5.5-8.7c-1.8-0.7-4-1-8-1h-24.3
		c-6.8,0-10.9,2.9-12.4,8.8l-4.4,17.2c-0.2,1-0.4,2.1-0.4,3.1c0.1,3.6,2.1,7,5.4,8.6c2.1,0.9,4.4,1.3,6.8,1.3h34l3.4-8.4
		c-2.2,0.7-4.6,0.9-6.9,0.8H114l-2.2-0.1c-1.9-0.1-2.9-0.9-2.9-2.3c0.1-0.7,0.2-1.4,0.4-2.1l1-3.6h32l2.5-9.7
		C145,64.5,145.2,63.2,145.1,61.9L145.1,61.9z M93.8,52.2H78.4l2.2-8.6l-19.4,1.2l-1.9,7.4h-8l-2,7.6h8l-4.8,18.5
		c-0.3,1-0.5,2.1-0.5,3.2c0,4.2,3.1,8.3,6.9,9.1c1.5,0.2,3,0.4,4.4,0.5c1.8,0.1,2.8,0.1,3.2,0.1h19.3l2.3-8.7
		c-2.1,0.8-4.4,1.2-6.7,1.2h-5c-3.8,0-5.4-0.9-5.4-2.9c0-0.4,0.1-0.8,0.2-1.2l5.1-19.7h15.4L93.8,52.2z"/>
</g>
</svg>
