<svg id="Layer_1" data-name="Layer 1" xmlns="http://www.w3.org/2000/svg" viewBox="0 0 337.4 120.92"><defs><style>.cls-1{fill:#fff;}</style></defs><title>logo-blanco</title><g id="Primer_plano" data-name="Primer plano"><polygon class="cls-1" points="88.9 0 63.2 0 44.5 26.7 67.3 26.7 88.9 0"/><polygon class="cls-1" points="44.5 26.7 18.7 26.7 0 53.3 22.9 53.3 44.5 26.7"/><polygon class="cls-1" points="199.5 108.2 189.9 108.2 189.6 109.8 193.5 109.8 191.1 120.8 192.9 120.8 195.3 109.8 199.2 109.8 199.5 108.2"/><path class="cls-1" d="M215.4,116.1h-5l3.8-6Zm-9.9,4.7h2l2-3.2h6.2l.7,3.2h1.9l-2.8-12.6h-1.7Z" transform="translate(0 0)"/><polygon class="cls-1" points="227.8 120.8 234.9 120.8 235.2 119.2 230 119.2 232.4 108.2 230.6 108.2 227.8 120.8"/><polygon class="cls-1" points="244.9 120.8 252 120.8 252.3 119.2 247.1 119.2 249.5 108.2 247.7 108.2 244.9 120.8"/><polygon class="cls-1" points="262.1 120.8 269.2 120.8 269.6 119.2 264.3 119.2 265.2 115.1 269.9 115.1 270.2 113.5 265.6 113.5 266.4 109.8 271.3 109.8 271.7 108.2 264.9 108.2 262.1 120.8"/><path class="cls-1" d="M280.3,120.8h1.8l1.2-5.6h1.6c.9,0,1.2.3,1.7,2.3l.8,3.3h1.9l-.7-2.6c-.2-1-.5-2.9-1.5-3.4a3.63,3.63,0,0,0,3.1-3.4c0-3.1-2.9-3.1-4.7-3.1H283Zm4.1-11h1.7c1.4,0,2.1.4,2.1,1.7,0,1.7-1.9,2.1-3.2,2.1h-1.4Z" transform="translate(0 0)"/><polygon class="cls-1" points="299.4 120.8 306.4 120.8 306.8 119.2 301.5 119.2 302.4 115.1 307.1 115.1 307.5 113.5 302.8 113.5 303.6 109.8 308.6 109.8 308.9 108.2 302.1 108.2 299.4 120.8"/><path class="cls-1" d="M325.9,108.6a8,8,0,0,0-3-.6c-2.1,0-4.1,1.3-4.1,3.6,0,3.5,4.3,3,4.3,5.6,0,1-.8,2.2-2.7,2.2a5,5,0,0,1-2.6-.8l-.6,1.6a8.42,8.42,0,0,0,3.5.7,4,4,0,0,0,4.3-3.7v-.3c0-3.3-4.3-3.3-4.3-5.4,0-1.5,1.3-2,2.5-2a4.65,4.65,0,0,1,2.3.6Z" transform="translate(0 0)"/><path class="cls-1" d="M337.4,52.2H302.8c-3.7,0-6.4.6-8.2,1.6s-2.9,2.3-4.1,5.1a8.64,8.64,0,0,0-.7,2.1l-2.1,7.9a9.08,9.08,0,0,0-.3,2.3,8.07,8.07,0,0,0,5.5,7.9,36.83,36.83,0,0,0,6.6.6H311c1.7,0,2.1.2,2.1,1.3a5.49,5.49,0,0,1-.5,1.7,2.45,2.45,0,0,1-1.7,1.1H294.8l-3.3-.1c-3.6-.1-4-.2-5.4-.6-.6-.2-1.2-.3-1.9-.6l-.9,8.7h33.1c6.1,0,8.3-.5,11-2.5,2.3-1.7,3.3-3.7,4.5-7.8l1.6-6a13.2,13.2,0,0,0,.6-3.9c0-4.6-3.7-7.8-8.9-7.8H311.5c-2.5,0-3.1-.2-3.1-1.3q0-2.1,2.7-2.1h16.5a51.15,51.15,0,0,1,5.6.3,14,14,0,0,1,3.9,1Zm-71.5,9.5-.3,1.8-1.1,4.4h-13l1.2-4.4c.9-3.2,1.4-3.7,4.4-3.7h6C264.9,59.7,265.9,60.3,265.9,61.7Zm18.6.2a9.32,9.32,0,0,0-5.5-8.7c-1.8-.7-4-1-8-1H246.6c-6.8,0-10.9,2.9-12.4,8.8l-4.5,17.2a16.45,16.45,0,0,0-.4,3.1,9.82,9.82,0,0,0,5.4,8.6,17.16,17.16,0,0,0,6.8,1.3h34l3.4-8.4a20.1,20.1,0,0,1-6.9.8H253.3l-2.2-.1c-1.9-.1-2.9-.9-2.9-2.3a15.52,15.52,0,0,1,.4-2.1l1-3.6h32l2.5-9.7A10.39,10.39,0,0,0,284.5,61.9Zm-9-24.9H264.7l-7.9,11.2h9.6ZM234,52.2H223.2a12.09,12.09,0,0,0-6.5,1.3c-1.8,1-2.8,2.2-4.4,5.2l.2-2.1.1-2.7.2-1.8H194.9a7.17,7.17,0,0,1,.6,2.9,19.48,19.48,0,0,1-.2,2.5,9,9,0,0,1-.3,1.6L189,82a26.37,26.37,0,0,1-2.5,6.8,21.63,21.63,0,0,1-1.4,2.2h22.4a8.68,8.68,0,0,1-.5-2.8,21.12,21.12,0,0,1,.2-2.6,11.55,11.55,0,0,0,.2-1.6L212,66.1c.6-2.5,1.9-3.3,5.3-3.3H224a10,10,0,0,1,6.5,2Zm-41.6,0H181.6a12.09,12.09,0,0,0-6.5,1.3c-1.8,1-2.8,2.2-4.4,5.2l.2-2.1L171,54l.2-1.8H153.3a7.17,7.17,0,0,1,.6,2.9,19.48,19.48,0,0,1-.2,2.5,9,9,0,0,1-.3,1.6l-6,22.8a26.37,26.37,0,0,1-2.5,6.8,21.63,21.63,0,0,1-1.4,2.2H166a8.68,8.68,0,0,1-.5-2.8,21.12,21.12,0,0,1,.2-2.6,11.55,11.55,0,0,0,.2-1.6l4.6-17.9c.6-2.5,1.9-3.3,5.3-3.3h6.7a10,10,0,0,1,6.5,2Zm-66,9.5-.3,1.8L125,67.9H112l1.2-4.4c.9-3.2,1.4-3.7,4.4-3.7h6c1.9-.1,2.9.5,2.8,1.9Zm18.7.2a9.32,9.32,0,0,0-5.5-8.7c-1.8-.7-4-1-8-1H107.3c-6.8,0-10.9,2.9-12.4,8.8L90.5,78.2a16.45,16.45,0,0,0-.4,3.1,9.82,9.82,0,0,0,5.4,8.6,17.16,17.16,0,0,0,6.8,1.3h34l3.4-8.4a20.1,20.1,0,0,1-6.9.8H114l-2.2-.1c-1.9-.1-2.9-.9-2.9-2.3a15.52,15.52,0,0,1,.4-2.1l1-3.6h32l2.5-9.7a17.11,17.11,0,0,0,.3-3.9ZM93.8,52.2H78.4l2.2-8.6L61.2,44.8l-1.9,7.4h-8l-2,7.6h8L52.5,78.3a11.27,11.27,0,0,0-.5,3.2c0,4.2,3.1,8.3,6.9,9.1,1.5.2,3,.4,4.4.5,1.8.1,2.8.1,3.2.1H85.8l2.3-8.7a18.92,18.92,0,0,1-6.7,1.2h-5c-3.8,0-5.4-.9-5.4-2.9a5,5,0,0,1,.2-1.2l5.1-19.7H91.7Z" transform="translate(0 0)"/></g></svg>